Coordinates
version=1
nRows=17
nColumns=24
inDegrees=yes

Units are S.I. units (second, meters, Newtons, ...)
Angles are in degrees.

endheader
time	pelvis_tilt	pelvis_list	pelvis_rotation	pelvis_tx	pelvis_ty	pelvis_tz	hip_flexion_r	hip_adduction_r	hip_rotation_r	knee_angle_r	ankle_angle_r	subtalar_angle_r	mtp_angle_r	hip_flexion_l	hip_adduction_l	hip_rotation_l	knee_angle_l	ankle_angle_l	subtalar_angle_l	mtp_angle_l	lumbar_extension	lumbar_bending	lumbar_rotation
      3.98000000	     -8.52605283	     -2.19030455	      3.13406948	      0.11848401	      0.97827619	     -0.01774866	     24.44497628	     -3.50941965	    -14.94087726	      1.20893971	     -5.04557260	      0.00000000	      0.00000000	     -1.64716065	     -2.89450786	     -7.43134604	     -4.65686663	      7.44995405	      0.00000000	      0.00000000	     -1.07044602	      2.98872111	      0.42183750
      3.99000000	     -8.42329502	     -2.17648387	      3.43615669	      0.11888235	      0.97713266	     -0.01602813	     24.52023664	     -3.61528075	    -14.79892324	      0.21281085	     -5.37493304	      0.00000000	      0.00000000	     -2.09817024	     -3.04321350	     -7.36485349	     -4.87132842	      7.59822932	      0.00000000	      0.00000000	     -1.00450925	      3.05389347	      0.23221056
      4.00000000	     -8.18832289	     -1.98845712	      3.73844785	      0.11902641	      0.97611233	     -0.01427286	     24.65774007	     -3.90801917	    -14.92401351	     -1.27712391	     -5.42442631	      0.00000000	      0.00000000	     -2.54781353	     -3.04069154	     -6.94278903	     -5.43746595	      8.18822349	      0.00000000	      0.00000000	     -1.16166915	      2.93529513	      0.15454979
      4.01000000	     -8.06717597	     -1.95115460	      4.07101907	      0.11961905	      0.97504249	     -0.01229951	     24.70722258	     -4.03648507	    -14.81532804	     -2.45151980	     -5.88584479	      0.00000000	      0.00000000	     -2.97308333	     -3.20850682	     -6.83266791	     -5.74586949	      8.29213636	      0.00000000	      0.00000000	     -1.08873827	      2.97304060	     -0.01631296
      4.02000000	     -7.88316292	     -1.81518887	      4.31510158	      0.12017339	      0.97411788	     -0.01028993	     24.78882529	     -4.23506317	    -14.87357547	     -3.82207575	     -6.39190274	      0.00000000	      0.00000000	     -3.39810545	     -3.27791180	     -6.55621236	     -6.27843277	      8.50761076	      0.00000000	      0.00000000	     -1.11605324	      2.93528661	     -0.05074994
      4.03000000	     -7.72701809	     -1.67185370	      4.62058021	      0.12086465	      0.97330577	     -0.00812724	     24.79923045	     -4.44030947	    -14.87959466	     -5.04724082	     -6.87001630	      0.00000000	      0.00000000	     -3.75599281	     -3.36551110	     -6.34998527	     -6.84216704	      8.67506110	      0.00000000	      0.00000000	     -1.09194183	      2.86609216	     -0.14810311
      4.04000000	     -7.63112273	     -1.34193086	      4.97977090	      0.12143970	      0.97255383	     -0.00620817	     24.84563485	     -4.87429331	    -15.07177328	     -6.24223094	     -7.15550479	      0.00000000	      0.00000000	     -3.84975195	     -3.24963955	     -5.86894815	     -7.87871462	      9.15227560	      0.00000000	      0.00000000	     -1.02432287	      2.62689440	     -0.29369905
      4.05000000	     -7.58263547	     -1.22645604	      5.26780000	      0.12216111	      0.97200686	     -0.00376971	     24.89932553	     -5.02750076	    -15.09485951	     -7.34748864	     -7.53875979	      0.00000000	      0.00000000	     -3.92028734	     -3.39878597	     -5.60639263	     -8.77137658	      9.19831842	      0.00000000	      0.00000000	     -0.87794167	      2.57399704	     -0.35221557
      4.06000000	     -7.45543746	     -1.17227927	      5.42417179	      0.12310971	      0.97184926	     -0.00111140	     24.78291616	     -5.03065044	    -15.00083155	     -8.29137908	     -7.89085898	      0.00000000	      0.00000000	     -4.13084339	     -3.62047471	     -5.42570454	     -9.55477907	      8.93847442	      0.00000000	      0.00000000	     -0.80395481	      2.61552332	     -0.29399000
      4.07000000	     -7.30719811	     -1.08910929	      5.55196744	      0.12395702	      0.97200671	      0.00160662	     24.60780767	     -5.04211027	    -14.94587116	     -9.16413143	     -8.09815915	      0.00000000	      0.00000000	     -4.21186356	     -3.81903192	     -5.22590590	    -10.63688116	      8.62873023	      0.00000000	      0.00000000	     -0.78790705	      2.63180557	     -0.17140270
      4.08000000	     -7.16548402	     -1.01117960	      5.69815450	      0.12472593	      0.97245056	      0.00439025	     24.38195172	     -5.03864822	    -14.88251076	     -9.96675990	     -8.09385810	      0.00000000	      0.00000000	     -4.12980234	     -4.03818939	     -5.02236475	    -11.98827759	      8.27567036	      0.00000000	      0.00000000	     -0.78559201	      2.64788613	     -0.07716136
      4.09000000	     -7.30408164	     -1.00803139	      6.01129930	      0.12521326	      0.97269011	      0.00704709	     24.45360422	     -5.06138781	    -15.01272156	    -10.89125549	     -7.52119935	      0.00000000	      0.00000000	     -3.39564934	     -4.33602807	     -4.59430660	    -13.97200469	      8.33231665	      0.00000000	      0.00000000	     -0.46438437	      2.70083200	     -0.17670593
      4.10000000	     -7.18505790	     -0.97648586	      6.11263858	      0.12592498	      0.97370220	      0.01002472	     24.10739849	     -4.95187493	    -14.88423531	    -11.48053976	     -7.28151893	      0.00000000	      0.00000000	     -3.09984627	     -4.61749044	     -4.40405923	    -15.58095010	      7.51546066	      0.00000000	      0.00000000	     -0.45850288	      2.74977628	     -0.04254045
      4.11000000	     -7.20738784	     -1.04377466	      6.28449371	      0.12643516	      0.97466929	      0.01292226	     23.88301209	     -4.77748504	    -14.97009313	    -12.08102303	     -6.58092809	      0.00000000	      0.00000000	     -2.40598211	     -4.98877875	     -4.05022899	    -17.60121496	      6.87108792	      0.00000000	      0.00000000	     -0.28569027	      2.88287078	      0.03990083
      4.12000000	     -7.06325978	     -0.96670128	      6.23854455	      0.12698671	      0.97617836	      0.01591681	     23.36995621	     -4.62420813	    -14.83670682	    -12.39664911	     -6.28317869	      0.00000000	      0.00000000	     -2.00875723	     -5.17709187	     -3.73644342	    -19.38470781	      5.78169096	      0.00000000	      0.00000000	     -0.35039776	      2.89878885	      0.36496119
      4.13000000	     -7.20194536	     -1.09682688	      6.57507297	      0.12721141	      0.97732416	      0.01871738	     23.12124437	     -4.42255111	    -15.03296694	    -12.79251064	     -5.41343825	      0.00000000	      0.00000000	     -0.85704134	     -5.62292167	     -3.33273950	    -21.83928821	      4.76055284	      0.00000000	      0.00000000	     -0.06750880	      3.05263542	      0.24981530
      4.14000000	     -7.04468448	     -0.98766221	      6.61940813	      0.12748147	      0.97908395	      0.02168596	     22.44523570	     -4.28721975	    -14.90965917	    -12.86729553	     -4.95745264	      0.00000000	      0.00000000	     -0.20014339	     -5.80091606	     -3.15899301	    -23.96660941	      3.37148986	      0.00000000	      0.00000000	     -0.18818669	      2.98886567	      0.48499327
